<svg xmlns="http://www.w3.org/2000/svg" viewBox="-4 -4 108 108" width="108" height="108"><defs><linearGradient id="gg" x1="0" y1="0" x2="0" y2="1"><stop offset="0" stop-color="#F1D689"/><stop offset=".5" stop-color="#C9A227"/><stop offset="1" stop-color="#7B6019"/></linearGradient></defs><path d="M50.00,4.00 L69.74,22.83 L93.75,35.79 L81.94,60.38 L77.04,87.21 L50.00,83.58 L22.96,87.21 L18.06,60.38 L6.25,35.79 L30.26,22.83 Z" fill="none" stroke="url(#gg)" stroke-width="2.3" stroke-linejoin="miter"/><circle cx="50" cy="50" r="27" fill="none" stroke="url(#gg)" stroke-width="0.77"/><g transform="translate(50,51.5) scale(0.46) translate(-50,-48)"><path d="M20,44 L29,6 L44,33 Z" fill="url(#gg)"/><path d="M80,44 L71,6 L56,33 Z" fill="url(#gg)"/><path fill-rule="evenodd" d="M24,48 L44,37 L56,37 L76,48 L63,72 L50,90 L37,72 Z M50,68 L56,77 L50,86 L44,77 Z" fill="url(#gg)"/></g></svg>