<svg xmlns="http://www.w3.org/2000/svg" viewBox="-6 -6 378.416 361.616" width="378.416" height="361.616"><defs><linearGradient id="gg" x1="0" y1="0" x2="0" y2="1"><stop offset="0" stop-color="#F1D689"/><stop offset=".5" stop-color="#C9A227"/><stop offset="1" stop-color="#7B6019"/></linearGradient></defs><g transform="translate(78.21,0.00) scale(2.10000)"><path d="M50.00,4.00 L69.74,22.83 L93.75,35.79 L81.94,60.38 L77.04,87.21 L50.00,83.58 L22.96,87.21 L18.06,60.38 L6.25,35.79 L30.26,22.83 Z" fill="none" stroke="url(#gg)" stroke-width="2.3" stroke-linejoin="miter"/><circle cx="50" cy="50" r="27" fill="none" stroke="url(#gg)" stroke-width="0.77"/><g transform="translate(50,51.5) scale(0.46) translate(-50,-48)"><path d="M20,44 L29,6 L44,33 Z" fill="url(#gg)"/><path d="M80,44 L71,6 L56,33 Z" fill="url(#gg)"/><path fill-rule="evenodd" d="M24,48 L44,37 L56,37 L76,48 L63,72 L50,90 L37,72 Z M50,68 L56,77 L50,86 L44,77 Z" fill="url(#gg)"/></g></g><path transform="translate(1.00,296.80)" d="M45.44 -18.688 44.672000000000004 -8.64Q43.008 -5.888 40.480000000000004 -3.7439999999999998Q37.952 -1.6 34.528 -0.35200000000000004Q31.104 0.896 26.688 0.896Q20.032 0.8320000000000001 14.847999999999999 -2.048Q9.664 -4.928 6.752 -10.144Q3.84 -15.36 3.84 -22.464000000000002Q3.84 -29.44 6.72 -34.656Q9.6 -39.872 14.815999999999999 -42.784Q20.032 -45.696 27.072 -45.696Q31.808 -45.696 35.616 -44.448Q39.424 -43.2 42.24 -41.344L43.52 -32.32H42.944Q41.536 -37.952 37.184 -40.864000000000004Q32.832 -43.776 27.072 -43.776Q21.44 -43.776 17.312 -41.120000000000005Q13.184000000000001 -38.464 10.912 -33.696Q8.64 -28.928 8.64 -22.528Q8.64 -16.128 10.912 -11.328Q13.184000000000001 -6.5280000000000005 17.248 -3.8400000000000003Q21.312 -1.1520000000000001 26.688 -1.024Q31.232 -1.024 35.104 -2.72Q38.976 -4.416 41.6 -8.288Q44.224000000000004 -12.16 44.928000000000004 -18.688Z M75.648 -44.800000000000004V0.0H71.488V-44.800000000000004ZM71.68 -4.672V0.0H66.56V-0.64Q66.56 -0.64 66.976 -0.64Q67.392 -0.64 67.392 -0.64Q69.056 -0.64 70.24000000000001 -1.824Q71.424 -3.008 71.488 -4.672ZM71.68 -40.128H71.488Q71.424 -41.792 70.24000000000001 -42.976Q69.056 -44.160000000000004 67.392 -44.160000000000004Q67.392 -44.160000000000004 66.976 -44.160000000000004Q66.56 -44.160000000000004 66.56 -44.160000000000004V-44.800000000000004H71.68ZM75.456 -4.672H75.648Q75.712 -3.008 76.896 -1.824Q78.08 -0.64 79.744 -0.64Q79.744 -0.64 80.128 -0.64Q80.512 -0.64 80.576 -0.64V0.0H75.456ZM75.456 -40.128V-44.800000000000004H80.576V-44.160000000000004Q80.512 -44.160000000000004 80.128 -44.160000000000004Q79.744 -44.160000000000004 79.744 -44.160000000000004Q78.08 -44.160000000000004 76.896 -42.976Q75.712 -41.792 75.648 -40.128Z M120.32000000000001 -44.608000000000004V0.0H116.16V-44.608000000000004ZM136.768 -44.864000000000004V-42.944H99.712V-44.864000000000004ZM136.768 -43.136V-37.952L136.128 -38.016V-39.104Q136.128 -40.704 135.00799999999998 -41.792Q133.888 -42.88 132.352 -42.944V-43.136ZM136.768 -46.016V-44.160000000000004L128.96 -44.864000000000004Q130.368 -44.864000000000004 131.936 -45.056Q133.50400000000002 -45.248 134.848 -45.504Q136.192 -45.76 136.768 -46.016ZM116.352 -4.672V0.0H111.232V-0.64Q111.232 -0.64 111.648 -0.64Q112.06400000000001 -0.64 112.06400000000001 -0.64Q113.72800000000001 -0.64 114.912 -1.824Q116.096 -3.008 116.16 -4.672ZM120.128 -4.672H120.32000000000001Q120.384 -3.008 121.56800000000001 -1.824Q122.75200000000001 -0.64 124.416 -0.64Q124.416 -0.64 124.832 -0.64Q125.248 -0.64 125.248 -0.64V0.0H120.128ZM104.128 -43.136V-42.944Q102.528 -42.88 101.44 -41.792Q100.352 -40.704 100.352 -39.104V-38.016L99.712 -37.952V-43.136ZM99.712 -46.016Q100.352 -45.76 101.664 -45.504Q102.976 -45.248 104.576 -45.056Q106.176 -44.864000000000004 107.52000000000001 -44.864000000000004L99.712 -44.160000000000004Z M175.04 -45.696 193.98399999999998 -0.384H188.54399999999998L173.76 -39.616ZM161.28 -4.672Q160.832 -3.392 161.152 -2.496Q161.47199999999998 -1.6 162.20799999999997 -1.12Q162.944 -0.64 163.712 -0.64H164.28799999999998V0.0H151.424V-0.64Q151.424 -0.64 151.712 -0.64Q152.0 -0.64 152.0 -0.64Q153.47199999999998 -0.64 155.04 -1.568Q156.608 -2.496 157.632 -4.672ZM175.04 -45.696 175.61599999999999 -41.216 159.552 -0.192H155.712L172.096 -39.104Q172.096 -39.104 172.44799999999998 -39.903999999999996Q172.79999999999998 -40.704 173.27999999999997 -41.856Q173.76 -43.008 174.112 -44.096000000000004Q174.464 -45.184 174.464 -45.696ZM184.064 -17.472V-15.552H164.03199999999998V-17.472ZM186.944 -4.672H192.192Q193.152 -2.496 194.752 -1.568Q196.352 -0.64 197.82399999999998 -0.64Q197.82399999999998 -0.64 198.07999999999998 -0.64Q198.33599999999998 -0.64 198.33599999999998 -0.64V0.0H183.93599999999998V-0.64H184.512Q185.728 -0.64 186.688 -1.6960000000000002Q187.648 -2.7520000000000002 186.944 -4.672Z M237.248 -44.800000000000004Q244.096 -44.800000000000004 249.248 -42.016000000000005Q254.39999999999998 -39.232 257.312 -34.176Q260.224 -29.12 260.224 -22.400000000000002Q260.224 -15.68 257.312 -10.655999999999999Q254.39999999999998 -5.632 249.248 -2.816Q244.096 0.0 237.248 0.0H223.552L223.488 -1.92Q223.488 -1.92 224.86399999999998 -1.92Q226.23999999999998 -1.92 228.32 -1.92Q230.39999999999998 -1.92 232.44799999999998 -1.92Q234.49599999999998 -1.92 235.87199999999999 -1.92Q237.248 -1.92 237.248 -1.92Q242.75199999999998 -1.92 246.81599999999997 -4.48Q250.88 -7.04 253.152 -11.648Q255.42399999999998 -16.256 255.42399999999998 -22.400000000000002Q255.42399999999998 -28.544 253.152 -33.152Q250.88 -37.76 246.784 -40.32Q242.688 -42.88 237.248 -42.88Q237.248 -42.88 235.808 -42.88Q234.368 -42.88 232.224 -42.88Q230.07999999999998 -42.88 227.93599999999998 -42.88Q225.792 -42.88 224.32 -42.88Q222.84799999999998 -42.88 222.84799999999998 -42.88V-44.800000000000004ZM224.64 -44.800000000000004V0.0H220.48V-44.800000000000004ZM220.672 -4.672V0.0H215.552V-0.64Q215.552 -0.64 215.968 -0.64Q216.384 -0.64 216.384 -0.64Q218.048 -0.64 219.232 -1.824Q220.416 -3.008 220.48 -4.672ZM220.672 -40.128H220.48Q220.48 -41.792 219.264 -42.976Q218.048 -44.160000000000004 216.384 -44.160000000000004Q216.384 -44.160000000000004 216.0 -44.160000000000004Q215.61599999999999 -44.160000000000004 215.61599999999999 -44.160000000000004L215.552 -44.800000000000004H220.672Z M290.368 -44.800000000000004V0.0H286.20799999999997V-44.800000000000004ZM307.648 -1.984V0.0H290.176V-1.984ZM304.896 -23.04V-21.12H290.176V-23.04ZM307.648 -44.800000000000004V-42.816H290.176V-44.800000000000004ZM311.552 -10.368 307.84 0.0H297.216L299.52 -1.984Q302.912 -1.984 305.056 -3.04Q307.2 -4.096 308.544 -6.016Q309.888 -7.936 310.912 -10.368ZM304.896 -21.248V-17.024H304.256V-17.984Q304.256 -19.264 303.36 -20.192Q302.464 -21.12 301.18399999999997 -21.12V-21.248ZM304.896 -27.136V-22.912H301.18399999999997V-23.04Q302.464 -23.104 303.36 -24.032Q304.256 -24.96 304.256 -26.240000000000002V-27.136ZM307.648 -43.008V-37.888H307.008V-39.04Q307.008 -40.576 305.91999999999996 -41.696Q304.832 -42.816 303.23199999999997 -42.88V-43.008ZM307.648 -45.952V-44.096000000000004L299.84 -44.800000000000004Q301.248 -44.800000000000004 302.81600000000003 -44.992000000000004Q304.384 -45.184 305.728 -45.44Q307.072 -45.696 307.648 -45.952ZM286.4 -4.672V0.0H281.28V-0.64Q281.28 -0.64 281.696 -0.64Q282.112 -0.64 282.112 -0.64Q283.776 -0.64 284.96000000000004 -1.824Q286.144 -3.008 286.20799999999997 -4.672ZM286.4 -40.128H286.20799999999997Q286.20799999999997 -41.792 284.99199999999996 -42.976Q283.776 -44.160000000000004 282.112 -44.160000000000004Q282.112 -44.160000000000004 281.728 -44.160000000000004Q281.344 -44.160000000000004 281.344 -44.160000000000004L281.28 -44.800000000000004H286.4Z M341.376 -44.800000000000004V0.0H337.216V-44.800000000000004ZM358.656 -1.984V0.0H341.18399999999997V-1.984ZM362.56 -10.368 358.84799999999996 0.0H348.224L350.52799999999996 -1.984Q353.91999999999996 -1.984 356.06399999999996 -3.04Q358.20799999999997 -4.096 359.55199999999996 -6.016Q360.89599999999996 -7.936 361.91999999999996 -10.368ZM337.40799999999996 -4.672V0.0H332.28799999999995V-0.64Q332.28799999999995 -0.64 332.70399999999995 -0.64Q333.12 -0.64 333.12 -0.64Q334.784 -0.64 335.96799999999996 -1.824Q337.152 -3.008 337.216 -4.672ZM337.40799999999996 -40.128H337.216Q337.152 -41.792 335.96799999999996 -42.976Q334.784 -44.160000000000004 333.12 -44.160000000000004Q333.12 -44.160000000000004 332.70399999999995 -44.160000000000004Q332.28799999999995 -44.160000000000004 332.28799999999995 -44.160000000000004V-44.800000000000004H337.40799999999996ZM341.18399999999997 -40.128V-44.800000000000004H346.304V-44.160000000000004Q346.24 -44.160000000000004 345.856 -44.160000000000004Q345.472 -44.160000000000004 345.472 -44.160000000000004Q343.808 -44.160000000000004 342.624 -42.976Q341.44 -41.792 341.376 -40.128Z" fill="#F4EFE6"/><path transform="translate(145.68,339.62)" d="M7.768319999999999 -10.348799999999999 15.402239999999999 -1.3708799999999999Q15.966719999999999 -0.8332799999999999 16.54464 -0.56448Q17.12256 -0.29568 17.95584 -0.2688V0.0H16.799999999999997Q16.5312 0.0 16.03392 -0.040319999999999995Q15.536639999999998 -0.08063999999999999 14.95872 -0.22848Q14.380799999999999 -0.37632 13.802879999999998 -0.6854399999999999Q13.22496 -0.9945599999999999 12.767999999999999 -1.53216Q12.767999999999999 -1.53216 12.2976 -2.09664Q11.8272 -2.66112 11.088 -3.54816Q10.348799999999999 -4.4352 9.528959999999998 -5.443199999999999Q8.709119999999999 -6.451199999999999 7.969919999999998 -7.338239999999999Q7.230719999999999 -8.22528 6.760319999999999 -8.78976Q6.2899199999999995 -9.354239999999999 6.2899199999999995 -9.354239999999999ZM15.536639999999998 -18.62784 7.4995199999999995 -9.354239999999999H6.2899199999999995L13.681919999999998 -18.62784ZM17.39136 -18.816V-18.57408H17.283839999999998Q16.3968 -18.57408 15.630719999999998 -18.22464Q14.864639999999998 -17.8752 14.327039999999998 -17.25696L12.6336 -17.31072Q12.983039999999999 -17.76768 12.754559999999998 -18.170879999999997Q12.526079999999999 -18.57408 11.98848 -18.57408H11.719679999999999V-18.816H17.283839999999998ZM5.42976 -18.816V0.0H3.6825599999999996V-18.816ZM3.7632 -1.9622399999999998V0.0H1.6127999999999998V-0.2688Q1.6127999999999998 -0.2688 1.7875199999999998 -0.2688Q1.9622399999999998 -0.2688 1.9622399999999998 -0.2688Q2.66112 -0.2688 3.1584 -0.7660799999999999Q3.65568 -1.2633599999999998 3.6825599999999996 -1.9622399999999998ZM3.7632 -16.853759999999998H3.6825599999999996Q3.65568 -17.552639999999997 3.1584 -18.04992Q2.66112 -18.5472 1.9622399999999998 -18.5472Q1.9622399999999998 -18.5472 1.7875199999999998 -18.5472Q1.6127999999999998 -18.5472 1.6127999999999998 -18.5472V-18.816H3.7632ZM5.349119999999999 -1.9622399999999998H5.42976Q5.456639999999999 -1.2633599999999998 5.953919999999999 -0.7660799999999999Q6.451199999999999 -0.2688 7.150079999999999 -0.2688Q7.150079999999999 -0.2688 7.311359999999999 -0.2688Q7.472639999999999 -0.2688 7.4995199999999995 -0.2688V0.0H5.349119999999999ZM5.349119999999999 -16.853759999999998V-18.816H7.4995199999999995V-18.5472Q7.472639999999999 -18.5472 7.311359999999999 -18.5472Q7.150079999999999 -18.5472 7.150079999999999 -18.5472Q6.451199999999999 -18.5472 5.953919999999999 -18.04992Q5.456639999999999 -17.552639999999997 5.42976 -16.853759999999998Z M36.71807999999999 0.9945599999999999 36.63744 0.8063999999999999Q38.545919999999995 0.2688 39.88992 -0.91392Q41.23392 -2.09664 42.080639999999995 -3.7363199999999996Q42.92735999999999 -5.3759999999999994 43.33055999999999 -7.2979199999999995Q43.73376 -9.21984 43.73376 -11.23584Q43.73376 -13.41312 43.276799999999994 -15.012479999999998Q42.81984 -16.611839999999997 41.905919999999995 -17.471999999999998Q40.992 -18.33216 39.59424 -18.33216Q38.33087999999999 -18.33216 37.511039999999994 -17.63328Q36.691199999999995 -16.9344 36.314879999999995 -15.792Q35.938559999999995 -14.6496 35.965439999999994 -13.305599999999998Q35.99232 -12.01536 36.40895999999999 -10.99392Q36.825599999999994 -9.97248 37.63199999999999 -9.408Q38.438399999999994 -8.84352 39.59424 -8.8704Q40.427519999999994 -8.897279999999999 41.220479999999995 -9.233279999999999Q42.013439999999996 -9.56928 42.55103999999999 -10.26816L42.68544 -10.02624Q42.013439999999996 -9.16608 41.1264 -8.655359999999998Q40.23936 -8.144639999999999 39.271679999999996 -7.983359999999999Q38.303999999999995 -7.82208 37.376639999999995 -8.050559999999999Q36.449279999999995 -8.279039999999998 35.6832 -8.88384Q34.91712 -9.488639999999998 34.46016 -10.49664Q34.0032 -11.504639999999998 33.949439999999996 -12.929279999999999Q33.89568 -14.83776 34.62143999999999 -16.20864Q35.347199999999994 -17.57952 36.650879999999994 -18.345599999999997Q37.954559999999994 -19.11168 39.59424 -19.13856Q42.389759999999995 -19.19232 44.069759999999995 -17.162879999999998Q45.749759999999995 -15.133439999999998 45.749759999999995 -11.39712Q45.749759999999995 -9.38112 45.21216 -7.2979199999999995Q44.67456 -5.21472 43.559039999999996 -3.40032Q42.44351999999999 -1.5859199999999998 40.75008 -0.40319999999999995Q39.056639999999994 0.7795199999999999 36.71807999999999 0.9945599999999999Z M69.02784 -19.19232Q69.45791999999999 -19.19232 69.95519999999999 -19.13856Q70.45248 -19.084799999999998 70.92287999999999 -18.990719999999996Q71.39327999999999 -18.896639999999998 71.78304 -18.80256Q72.1728 -18.708479999999998 72.38784 -18.600959999999997V-15.61728H72.14591999999999Q72.14591999999999 -16.907519999999998 71.25887999999999 -17.64672Q70.37183999999999 -18.38592 69.10847999999999 -18.38592Q67.63007999999999 -18.38592 66.71616 -17.45856Q65.80224 -16.5312 65.80224 -15.294719999999998Q65.80224 -14.783999999999999 66.03072 -14.098559999999999Q66.25919999999999 -13.41312 66.87743999999999 -12.82176L72.1728 -7.929599999999999Q72.97919999999999 -7.176959999999999 73.24799999999999 -6.316799999999999Q73.51679999999999 -5.456639999999999 73.51679999999999 -4.650239999999999Q73.51679999999999 -2.4191999999999996 72.15935999999999 -1.0214399999999997Q70.80192 0.37632 68.49024 0.37632Q67.84512 0.37632 66.97152 0.24192Q66.09791999999999 0.10751999999999999 65.27807999999999 -0.22848Q64.45823999999999 -0.56448 63.92063999999999 -1.10208Q63.839999999999996 -1.53216 63.839999999999996 -2.1772799999999997Q63.839999999999996 -2.8223999999999996 63.94752 -3.534719999999999Q64.05503999999999 -4.247039999999999 64.24319999999999 -4.838399999999999H64.48512Q64.35072 -3.4675199999999995 64.83456 -2.44608Q65.3184 -1.42464 66.24575999999999 -0.90048Q67.17312 -0.37632 68.35583999999999 -0.43007999999999996Q69.83424 -0.51072 70.89599999999999 -1.4649599999999998Q71.95776 -2.4191999999999996 71.95776 -4.032Q71.95776 -4.81152 71.68896 -5.443199999999999Q71.42016 -6.074879999999999 70.90943999999999 -6.53184L65.74847999999999 -11.316479999999999Q64.94207999999999 -12.069119999999998 64.61952 -12.969599999999998Q64.29696 -13.870079999999998 64.29696 -14.6496Q64.29696 -15.778559999999999 64.83456 -16.82688Q65.37216 -17.8752 66.43392 -18.53376Q67.49568 -19.19232 69.02784 -19.19232ZM72.38784 -18.92352V-18.359039999999997H70.34495999999999V-18.92352Z" fill="#C9A227"/><rect x="65.68" y="331.71" width="64" height="1.2" fill="#7d6717"/><rect x="236.73" y="331.71" width="64" height="1.2" fill="#7d6717"/></svg>