<svg xmlns="http://www.w3.org/2000/svg" viewBox="-6 -6 789.6239999999999 182" width="789.6239999999999" height="182"><defs><linearGradient id="gg" x1="0" y1="0" x2="0" y2="1"><stop offset="0" stop-color="#F1D689"/><stop offset=".5" stop-color="#C9A227"/><stop offset="1" stop-color="#7B6019"/></linearGradient></defs><g transform="translate(0.00,0.00) scale(1.70000)"><path d="M50.00,4.00 L69.74,22.83 L93.75,35.79 L81.94,60.38 L77.04,87.21 L50.00,83.58 L22.96,87.21 L18.06,60.38 L6.25,35.79 L30.26,22.83 Z" fill="none" stroke="url(#gg)" stroke-width="2.3" stroke-linejoin="miter"/><circle cx="50" cy="50" r="27" fill="none" stroke="url(#gg)" stroke-width="0.77"/><g transform="translate(50,51.5) scale(0.46) translate(-50,-48)"><path d="M20,44 L29,6 L44,33 Z" fill="url(#gg)"/><path d="M80,44 L71,6 L56,33 Z" fill="url(#gg)"/><path fill-rule="evenodd" d="M24,48 L44,37 L56,37 L76,48 L63,72 L50,90 L37,72 Z M50,68 L56,77 L50,86 L44,77 Z" fill="url(#gg)"/></g></g><rect x="218.00" y="15.00" width="1.2" height="140" fill="#7d6717"/><path transform="translate(267.00,91.40)" d="M45.44 -18.688 44.672000000000004 -8.64Q43.008 -5.888 40.480000000000004 -3.7439999999999998Q37.952 -1.6 34.528 -0.35200000000000004Q31.104 0.896 26.688 0.896Q20.032 0.8320000000000001 14.847999999999999 -2.048Q9.664 -4.928 6.752 -10.144Q3.84 -15.36 3.84 -22.464000000000002Q3.84 -29.44 6.72 -34.656Q9.6 -39.872 14.815999999999999 -42.784Q20.032 -45.696 27.072 -45.696Q31.808 -45.696 35.616 -44.448Q39.424 -43.2 42.24 -41.344L43.52 -32.32H42.944Q41.536 -37.952 37.184 -40.864000000000004Q32.832 -43.776 27.072 -43.776Q21.44 -43.776 17.312 -41.120000000000005Q13.184000000000001 -38.464 10.912 -33.696Q8.64 -28.928 8.64 -22.528Q8.64 -16.128 10.912 -11.328Q13.184000000000001 -6.5280000000000005 17.248 -3.8400000000000003Q21.312 -1.1520000000000001 26.688 -1.024Q31.232 -1.024 35.104 -2.72Q38.976 -4.416 41.6 -8.288Q44.224000000000004 -12.16 44.928000000000004 -18.688Z M74.368 -44.800000000000004V0.0H70.208V-44.800000000000004ZM70.4 -4.672V0.0H65.28V-0.64Q65.28 -0.64 65.696 -0.64Q66.112 -0.64 66.112 -0.64Q67.776 -0.64 68.96000000000001 -1.824Q70.144 -3.008 70.208 -4.672ZM70.4 -40.128H70.208Q70.144 -41.792 68.96000000000001 -42.976Q67.776 -44.160000000000004 66.112 -44.160000000000004Q66.112 -44.160000000000004 65.696 -44.160000000000004Q65.28 -44.160000000000004 65.28 -44.160000000000004V-44.800000000000004H70.4ZM74.176 -4.672H74.368Q74.432 -3.008 75.616 -1.824Q76.8 -0.64 78.464 -0.64Q78.464 -0.64 78.848 -0.64Q79.232 -0.64 79.29599999999999 -0.64V0.0H74.176ZM74.176 -40.128V-44.800000000000004H79.29599999999999V-44.160000000000004Q79.232 -44.160000000000004 78.848 -44.160000000000004Q78.464 -44.160000000000004 78.464 -44.160000000000004Q76.8 -44.160000000000004 75.616 -42.976Q74.432 -41.792 74.368 -40.128Z M117.76 -44.608000000000004V0.0H113.6V-44.608000000000004ZM134.208 -44.864000000000004V-42.944H97.152V-44.864000000000004ZM134.208 -43.136V-37.952L133.56799999999998 -38.016V-39.104Q133.56799999999998 -40.704 132.44799999999998 -41.792Q131.328 -42.88 129.792 -42.944V-43.136ZM134.208 -46.016V-44.160000000000004L126.4 -44.864000000000004Q127.80799999999999 -44.864000000000004 129.376 -45.056Q130.94400000000002 -45.248 132.288 -45.504Q133.632 -45.76 134.208 -46.016ZM113.792 -4.672V0.0H108.672V-0.64Q108.672 -0.64 109.088 -0.64Q109.504 -0.64 109.504 -0.64Q111.168 -0.64 112.352 -1.824Q113.536 -3.008 113.6 -4.672ZM117.568 -4.672H117.76Q117.824 -3.008 119.00800000000001 -1.824Q120.19200000000001 -0.64 121.856 -0.64Q121.856 -0.64 122.27199999999999 -0.64Q122.688 -0.64 122.688 -0.64V0.0H117.568ZM101.568 -43.136V-42.944Q99.968 -42.88 98.88 -41.792Q97.792 -40.704 97.792 -39.104V-38.016L97.152 -37.952V-43.136ZM97.152 -46.016Q97.792 -45.76 99.104 -45.504Q100.416 -45.248 102.01599999999999 -45.056Q103.616 -44.864000000000004 104.96000000000001 -44.864000000000004L97.152 -44.160000000000004Z M171.2 -45.696 190.144 -0.384H184.704L169.92 -39.616ZM157.44 -4.672Q156.992 -3.392 157.31199999999998 -2.496Q157.63199999999998 -1.6 158.368 -1.12Q159.10399999999998 -0.64 159.87199999999999 -0.64H160.44799999999998V0.0H147.584V-0.64Q147.584 -0.64 147.872 -0.64Q148.16 -0.64 148.16 -0.64Q149.63199999999998 -0.64 151.2 -1.568Q152.768 -2.496 153.792 -4.672ZM171.2 -45.696 171.77599999999998 -41.216 155.712 -0.192H151.87199999999999L168.256 -39.104Q168.256 -39.104 168.608 -39.903999999999996Q168.95999999999998 -40.704 169.44 -41.856Q169.92 -43.008 170.272 -44.096000000000004Q170.624 -45.184 170.624 -45.696ZM180.224 -17.472V-15.552H160.19199999999998V-17.472ZM183.10399999999998 -4.672H188.35199999999998Q189.31199999999998 -2.496 190.91199999999998 -1.568Q192.512 -0.64 193.98399999999998 -0.64Q193.98399999999998 -0.64 194.23999999999998 -0.64Q194.49599999999998 -0.64 194.49599999999998 -0.64V0.0H180.096V-0.64H180.672Q181.88799999999998 -0.64 182.84799999999998 -1.6960000000000002Q183.808 -2.7520000000000002 183.10399999999998 -4.672Z M232.128 -44.800000000000004Q238.976 -44.800000000000004 244.128 -42.016000000000005Q249.27999999999997 -39.232 252.19199999999998 -34.176Q255.10399999999998 -29.12 255.10399999999998 -22.400000000000002Q255.10399999999998 -15.68 252.19199999999998 -10.655999999999999Q249.27999999999997 -5.632 244.128 -2.816Q238.976 0.0 232.128 0.0H218.432L218.368 -1.92Q218.368 -1.92 219.74399999999997 -1.92Q221.11999999999998 -1.92 223.2 -1.92Q225.27999999999997 -1.92 227.32799999999997 -1.92Q229.37599999999998 -1.92 230.75199999999998 -1.92Q232.128 -1.92 232.128 -1.92Q237.63199999999998 -1.92 241.69599999999997 -4.48Q245.76 -7.04 248.03199999999998 -11.648Q250.30399999999997 -16.256 250.30399999999997 -22.400000000000002Q250.30399999999997 -28.544 248.03199999999998 -33.152Q245.76 -37.76 241.664 -40.32Q237.56799999999998 -42.88 232.128 -42.88Q232.128 -42.88 230.688 -42.88Q229.248 -42.88 227.10399999999998 -42.88Q224.95999999999998 -42.88 222.81599999999997 -42.88Q220.672 -42.88 219.2 -42.88Q217.72799999999998 -42.88 217.72799999999998 -42.88V-44.800000000000004ZM219.51999999999998 -44.800000000000004V0.0H215.35999999999999V-44.800000000000004ZM215.552 -4.672V0.0H210.432V-0.64Q210.432 -0.64 210.84799999999998 -0.64Q211.26399999999998 -0.64 211.26399999999998 -0.64Q212.928 -0.64 214.112 -1.824Q215.296 -3.008 215.35999999999999 -4.672ZM215.552 -40.128H215.35999999999999Q215.35999999999999 -41.792 214.144 -42.976Q212.928 -44.160000000000004 211.26399999999998 -44.160000000000004Q211.26399999999998 -44.160000000000004 210.88 -44.160000000000004Q210.49599999999998 -44.160000000000004 210.49599999999998 -44.160000000000004L210.432 -44.800000000000004H215.552Z M283.96799999999996 -44.800000000000004V0.0H279.808V-44.800000000000004ZM301.248 -1.984V0.0H283.77599999999995V-1.984ZM298.496 -23.04V-21.12H283.77599999999995V-23.04ZM301.248 -44.800000000000004V-42.816H283.77599999999995V-44.800000000000004ZM305.152 -10.368 301.43999999999994 0.0H290.816L293.11999999999995 -1.984Q296.51199999999994 -1.984 298.65599999999995 -3.04Q300.79999999999995 -4.096 302.14399999999995 -6.016Q303.48799999999994 -7.936 304.51199999999994 -10.368ZM298.496 -21.248V-17.024H297.85599999999994V-17.984Q297.85599999999994 -19.264 296.9599999999999 -20.192Q296.06399999999996 -21.12 294.784 -21.12V-21.248ZM298.496 -27.136V-22.912H294.784V-23.04Q296.06399999999996 -23.104 296.9599999999999 -24.032Q297.85599999999994 -24.96 297.85599999999994 -26.240000000000002V-27.136ZM301.248 -43.008V-37.888H300.60799999999995V-39.04Q300.60799999999995 -40.576 299.52 -41.696Q298.43199999999996 -42.816 296.832 -42.88V-43.008ZM301.248 -45.952V-44.096000000000004L293.43999999999994 -44.800000000000004Q294.84799999999996 -44.800000000000004 296.41599999999994 -44.992000000000004Q297.984 -45.184 299.328 -45.44Q300.67199999999997 -45.696 301.248 -45.952ZM279.99999999999994 -4.672V0.0H274.87999999999994V-0.64Q274.87999999999994 -0.64 275.29599999999994 -0.64Q275.712 -0.64 275.712 -0.64Q277.376 -0.64 278.55999999999995 -1.824Q279.74399999999997 -3.008 279.808 -4.672ZM279.99999999999994 -40.128H279.808Q279.808 -41.792 278.592 -42.976Q277.376 -44.160000000000004 275.712 -44.160000000000004Q275.712 -44.160000000000004 275.328 -44.160000000000004Q274.94399999999996 -44.160000000000004 274.94399999999996 -44.160000000000004L274.87999999999994 -44.800000000000004H279.99999999999994Z M333.69599999999997 -44.800000000000004V0.0H329.53599999999994V-44.800000000000004ZM350.976 -1.984V0.0H333.50399999999996V-1.984ZM354.88 -10.368 351.16799999999995 0.0H340.544L342.84799999999996 -1.984Q346.23999999999995 -1.984 348.38399999999996 -3.04Q350.52799999999996 -4.096 351.87199999999996 -6.016Q353.21599999999995 -7.936 354.23999999999995 -10.368ZM329.72799999999995 -4.672V0.0H324.60799999999995V-0.64Q324.60799999999995 -0.64 325.024 -0.64Q325.44 -0.64 325.44 -0.64Q327.104 -0.64 328.288 -1.824Q329.472 -3.008 329.53599999999994 -4.672ZM329.72799999999995 -40.128H329.53599999999994Q329.472 -41.792 328.288 -42.976Q327.104 -44.160000000000004 325.44 -44.160000000000004Q325.44 -44.160000000000004 325.024 -44.160000000000004Q324.60799999999995 -44.160000000000004 324.60799999999995 -44.160000000000004V-44.800000000000004H329.72799999999995ZM333.50399999999996 -40.128V-44.800000000000004H338.62399999999997V-44.160000000000004Q338.55999999999995 -44.160000000000004 338.17599999999993 -44.160000000000004Q337.792 -44.160000000000004 337.792 -44.160000000000004Q336.128 -44.160000000000004 334.94399999999996 -42.976Q333.76 -41.792 333.69599999999997 -40.128Z" fill="#F4EFE6"/><path transform="translate(641.74,91.40)" d="M18.496 -24.64 36.672000000000004 -3.2640000000000002Q38.016 -1.984 39.391999999999996 -1.3439999999999999Q40.768 -0.704 42.752 -0.64V0.0H40.0Q39.36 0.0 38.176 -0.096Q36.992 -0.192 35.616 -0.544Q34.24 -0.896 32.864000000000004 -1.632Q31.488 -2.368 30.400000000000002 -3.648Q30.400000000000002 -3.648 29.28 -4.992Q28.16 -6.336 26.4 -8.448Q24.64 -10.56 22.688000000000002 -12.96Q20.736 -15.36 18.976 -17.472Q17.216 -19.584 16.096 -20.928Q14.976 -22.272000000000002 14.976 -22.272000000000002ZM36.992 -44.352000000000004 17.856 -22.272000000000002H14.976L32.576 -44.352000000000004ZM41.408 -44.800000000000004V-44.224000000000004H41.152Q39.04 -44.224000000000004 37.216 -43.392Q35.392 -42.56 34.112 -41.088L30.080000000000002 -41.216Q30.912 -42.304 30.368000000000002 -43.264Q29.824 -44.224000000000004 28.544 -44.224000000000004H27.904V-44.800000000000004H41.152ZM12.928 -44.800000000000004V0.0H8.768V-44.800000000000004ZM8.96 -4.672V0.0H3.84V-0.64Q3.84 -0.64 4.256 -0.64Q4.672 -0.64 4.672 -0.64Q6.336 -0.64 7.5200000000000005 -1.824Q8.704 -3.008 8.768 -4.672ZM8.96 -40.128H8.768Q8.704 -41.792 7.5200000000000005 -42.976Q6.336 -44.160000000000004 4.672 -44.160000000000004Q4.672 -44.160000000000004 4.256 -44.160000000000004Q3.84 -44.160000000000004 3.84 -44.160000000000004V-44.800000000000004H8.96ZM12.736 -4.672H12.928Q12.992 -3.008 14.176 -1.824Q15.36 -0.64 17.024 -0.64Q17.024 -0.64 17.408 -0.64Q17.792 -0.64 17.856 -0.64V0.0H12.736ZM12.736 -40.128V-44.800000000000004H17.856V-44.160000000000004Q17.792 -44.160000000000004 17.408 -44.160000000000004Q17.024 -44.160000000000004 17.024 -44.160000000000004Q15.36 -44.160000000000004 14.176 -42.976Q12.992 -41.792 12.928 -40.128Z M65.024 2.368 64.832 1.92Q69.376 0.64 72.576 -2.176Q75.776 -4.992 77.792 -8.896Q79.80799999999999 -12.8 80.768 -17.376Q81.728 -21.952 81.728 -26.752Q81.728 -31.936 80.63999999999999 -35.744Q79.55199999999999 -39.552 77.376 -41.6Q75.2 -43.648 71.872 -43.648Q68.864 -43.648 66.912 -41.984Q64.96 -40.32 64.064 -37.6Q63.168 -34.88 63.232 -31.68Q63.296 -28.608 64.288 -26.176000000000002Q65.28 -23.744 67.2 -22.4Q69.12 -21.056 71.872 -21.12Q73.856 -21.184 75.744 -21.984Q77.632 -22.784 78.912 -24.448L79.232 -23.872Q77.632 -21.824 75.52000000000001 -20.608Q73.408 -19.392 71.104 -19.008Q68.8 -18.624 66.592 -19.168Q64.384 -19.712 62.56 -21.152Q60.736 -22.592 59.647999999999996 -24.991999999999997Q58.56 -27.392 58.432 -30.784Q58.304 -35.328 60.032 -38.592Q61.76 -41.856 64.864 -43.68Q67.968 -45.504 71.872 -45.568Q78.52799999999999 -45.696 82.52799999999999 -40.864000000000004Q86.52799999999999 -36.032000000000004 86.52799999999999 -27.136Q86.52799999999999 -22.336000000000002 85.24799999999999 -17.376Q83.968 -12.416 81.31200000000001 -8.096Q78.656 -3.7760000000000002 74.624 -0.9600000000000001Q70.592 1.856 65.024 2.368Z M119.55199999999999 -45.696Q120.576 -45.696 121.75999999999999 -45.568Q122.944 -45.44 124.064 -45.216Q125.184 -44.992000000000004 126.112 -44.768Q127.03999999999999 -44.544000000000004 127.55199999999999 -44.288000000000004V-37.184H126.976Q126.976 -40.256 124.864 -42.016000000000005Q122.752 -43.776 119.744 -43.776Q116.224 -43.776 114.048 -41.568Q111.872 -39.36 111.872 -36.416000000000004Q111.872 -35.2 112.416 -33.568Q112.96 -31.936 114.432 -30.528000000000002L127.03999999999999 -18.88Q128.96 -17.088 129.60000000000002 -15.040000000000001Q130.24 -12.992 130.24 -11.072000000000001Q130.24 -5.76 127.00800000000001 -2.432Q123.776 0.896 118.272 0.896Q116.736 0.896 114.656 0.5760000000000001Q112.576 0.256 110.624 -0.544Q108.672 -1.344 107.392 -2.624Q107.2 -3.648 107.2 -5.184Q107.2 -6.72 107.456 -8.416Q107.712 -10.112 108.16 -11.52H108.736Q108.416 -8.256 109.568 -5.824Q110.72 -3.392 112.928 -2.144Q115.136 -0.896 117.952 -1.024Q121.47200000000001 -1.216 124.0 -3.488Q126.52799999999999 -5.76 126.52799999999999 -9.6Q126.52799999999999 -11.456 125.888 -12.96Q125.248 -14.464 124.032 -15.552L111.744 -26.944Q109.824 -28.736 109.056 -30.880000000000003Q108.288 -33.024 108.288 -34.88Q108.288 -37.568 109.568 -40.064Q110.848 -42.56 113.376 -44.128Q115.904 -45.696 119.55199999999999 -45.696ZM127.55199999999999 -45.056V-43.712H122.688V-45.056Z" fill="#C9A227"/><path transform="translate(269.00,120.40)" d="M1.8299999999999998 0.0V-10.5H8.85V-9.81H2.5949999999999998V-0.69H9.075V0.0ZM2.505 -4.995V-5.67H8.19V-4.995Z M17.564999999999998 0.0V-10.5H18.33V-0.69H24.375V0.0Z M32.04 0.0V-10.5H32.805V0.0Z M44.175 0.0V-9.81H40.395V-10.5H48.72V-9.81H44.94V0.0Z M56.31 0.0V-10.5H63.330000000000005V-9.81H57.075V-0.69H63.55500000000001V0.0ZM56.98500000000001 -4.995V-5.67H62.67V-4.995Z M86.08500000000001 0.075Q84.9 0.075 83.89500000000001 -0.3225Q82.89000000000001 -0.72 82.14750000000001 -1.44Q81.40500000000002 -2.16 81.00000000000001 -3.1275Q80.59500000000001 -4.095 80.59500000000001 -5.25Q80.59500000000001 -6.404999999999999 81.00000000000001 -7.3725Q81.40500000000002 -8.34 82.15500000000002 -9.059999999999999Q82.90500000000002 -9.78 83.9025 -10.177499999999998Q84.9 -10.575 86.10000000000001 -10.575Q87.24000000000001 -10.575 88.215 -10.215Q89.19000000000001 -9.855 89.88000000000001 -9.135L89.4 -8.625Q88.71000000000001 -9.299999999999999 87.89250000000001 -9.584999999999999Q87.07500000000002 -9.87 86.11500000000001 -9.87Q85.09500000000001 -9.87 84.22500000000001 -9.524999999999999Q83.355 -9.18 82.71000000000001 -8.55Q82.06500000000001 -7.92 81.7125 -7.08Q81.36000000000001 -6.24 81.36000000000001 -5.25Q81.36000000000001 -4.26 81.7125 -3.42Q82.06500000000001 -2.58 82.71000000000001 -1.95Q83.355 -1.3199999999999998 84.22500000000001 -0.9749999999999999Q85.09500000000001 -0.63 86.11500000000001 -0.63Q87.04500000000002 -0.63 87.87750000000001 -0.915Q88.71000000000001 -1.2 89.4 -1.8599999999999999L89.83500000000001 -1.275Q89.13000000000001 -0.6 88.14750000000001 -0.2625Q87.165 0.075 86.08500000000001 0.075ZM89.83500000000001 -1.275 89.10000000000001 -1.365V-5.205H89.83500000000001Z M98.89500000000001 0.0V-10.5H105.915V-9.81H99.66000000000001V-0.69H106.14000000000001V0.0ZM99.57000000000001 -4.995V-5.67H105.25500000000001V-4.995Z M114.63000000000001 0.0V-10.5H118.39500000000001Q120.37500000000001 -10.5 121.50000000000001 -9.57Q122.62500000000001 -8.64 122.62500000000001 -6.96Q122.62500000000001 -5.865 122.11500000000001 -5.077500000000001Q121.60500000000002 -4.29 120.66000000000003 -3.8625Q119.71500000000002 -3.435 118.39500000000001 -3.435H115.05000000000001L115.39500000000001 -3.795V0.0ZM121.92000000000002 0.0 119.19000000000001 -3.81H120.06000000000002L122.79 0.0ZM115.39500000000001 -3.75 115.05000000000001 -4.109999999999999H118.39500000000001Q120.09000000000002 -4.109999999999999 120.96750000000002 -4.859999999999999Q121.84500000000001 -5.609999999999999 121.84500000000001 -6.96Q121.84500000000001 -8.325 120.96750000000002 -9.067499999999999Q120.09000000000002 -9.81 118.39500000000001 -9.81H115.05000000000001L115.39500000000001 -10.185Z M131.13000000000002 0.0V-10.5H131.775L136.65 -2.085H136.305L141.16500000000002 -10.5H141.79500000000002L141.81 0.0H141.06L141.04500000000002 -9.344999999999999H141.25500000000002L136.65 -1.395H136.275L131.655 -9.344999999999999H131.88000000000002V0.0Z M149.415 0.0 154.245 -10.5H155.01L159.84 0.0H159.01500000000001L154.455 -10.02H154.785L150.24 0.0ZM151.185 -2.955 151.44 -3.5999999999999996H157.725L157.98000000000002 -2.955Z M167.44500000000002 0.0V-10.5H168.09L175.57500000000002 -0.945H175.23000000000002V-10.5H175.995V0.0H175.365L167.865 -9.555H168.21V0.0Z M197.67000000000002 0.075Q196.5 0.075 195.4575 -0.3225Q194.41500000000002 -0.72 193.845 -1.3499999999999999L194.19000000000003 -1.92Q194.73000000000002 -1.365 195.66750000000002 -0.9824999999999999Q196.60500000000002 -0.6 197.655 -0.6Q198.705 -0.6 199.3725 -0.8775Q200.04000000000002 -1.155 200.3625 -1.62Q200.685 -2.085 200.685 -2.655Q200.685 -3.33 200.325 -3.735Q199.965 -4.14 199.38 -4.38Q198.79500000000002 -4.62 198.10500000000002 -4.785Q197.41500000000002 -4.95 196.71000000000004 -5.1375Q196.00500000000002 -5.325 195.42000000000002 -5.625Q194.835 -5.925 194.48250000000002 -6.4425Q194.13000000000002 -6.96 194.13000000000002 -7.785Q194.13000000000002 -8.535 194.52000000000004 -9.165Q194.91000000000003 -9.795 195.735 -10.184999999999999Q196.56 -10.575 197.85000000000002 -10.575Q198.72 -10.575 199.5675 -10.32Q200.41500000000002 -10.065 201.01500000000001 -9.629999999999999L200.73000000000002 -9.014999999999999Q200.07000000000002 -9.465 199.3125 -9.682500000000001Q198.555 -9.9 197.85000000000002 -9.9Q196.845 -9.9 196.185 -9.615Q195.525 -9.33 195.21 -8.8575Q194.895 -8.385 194.895 -7.8Q194.895 -7.125 195.2475 -6.72Q195.60000000000002 -6.3149999999999995 196.185 -6.074999999999999Q196.77 -5.835 197.47500000000002 -5.67Q198.18 -5.505 198.87 -5.3175Q199.56 -5.13 200.145 -4.83Q200.73000000000002 -4.53 201.09000000000003 -4.02Q201.45000000000002 -3.51 201.45000000000002 -2.6999999999999997Q201.45000000000002 -1.9649999999999999 201.04500000000002 -1.3275Q200.64000000000001 -0.69 199.8075 -0.3075Q198.97500000000002 0.075 197.67000000000002 0.075Z M217.53000000000003 0.0V-10.5H218.29500000000002V0.0ZM209.74500000000003 0.0V-10.5H210.51000000000002V0.0ZM210.42000000000002 -4.995V-5.67H217.62000000000003V-4.995Z M227.65500000000003 0.0V-10.5H234.675V-9.81H228.42000000000002V-0.69H234.9V0.0ZM228.33 -4.995V-5.67H234.01500000000001V-4.995Z M243.39000000000001 0.0V-10.5H247.155Q248.475 -10.5 249.42000000000002 -10.08Q250.365 -9.66 250.875 -8.872499999999999Q251.385 -8.084999999999999 251.385 -6.96Q251.385 -5.865 250.875 -5.07Q250.365 -4.2749999999999995 249.42000000000002 -3.8549999999999995Q248.475 -3.435 247.155 -3.435H243.81L244.155 -3.795V0.0ZM244.155 -3.75 243.81 -4.125H247.155Q248.85 -4.125 249.7275 -4.8675Q250.605 -5.609999999999999 250.605 -6.96Q250.605 -8.325 249.7275 -9.067499999999999Q248.85 -9.81 247.155 -9.81H243.81L244.155 -10.185Z M267.6 0.0V-10.5H268.365V0.0ZM259.815 0.0V-10.5H260.58000000000004V0.0ZM260.49 -4.995V-5.67H267.69V-4.995Z M277.725 0.0V-10.5H284.74500000000006V-9.81H278.49000000000007V-0.69H284.97V0.0ZM278.40000000000003 -4.995V-5.67H284.08500000000004V-4.995Z M293.46000000000004 0.0V-10.5H297.2250000000001Q299.20500000000004 -10.5 300.33000000000004 -9.57Q301.45500000000004 -8.64 301.45500000000004 -6.96Q301.45500000000004 -5.865 300.94500000000005 -5.077500000000001Q300.43500000000006 -4.29 299.49000000000007 -3.8625Q298.5450000000001 -3.435 297.2250000000001 -3.435H293.88000000000005L294.2250000000001 -3.795V0.0ZM300.75000000000006 0.0 298.02000000000004 -3.81H298.89000000000004L301.62000000000006 0.0ZM294.2250000000001 -3.75 293.88000000000005 -4.109999999999999H297.2250000000001Q298.9200000000001 -4.109999999999999 299.79750000000007 -4.859999999999999Q300.67500000000007 -5.609999999999999 300.67500000000007 -6.96Q300.67500000000007 -8.325 299.79750000000007 -9.067499999999999Q298.9200000000001 -9.81 297.2250000000001 -9.81H293.88000000000005L294.2250000000001 -10.185Z M309.96000000000004 0.0V-10.5H314.11500000000007Q315.78000000000003 -10.5 317.0400000000001 -9.825Q318.30000000000007 -9.15 318.99750000000006 -7.965Q319.69500000000005 -6.779999999999999 319.69500000000005 -5.25Q319.69500000000005 -3.7199999999999998 318.99750000000006 -2.5349999999999997Q318.30000000000007 -1.3499999999999999 317.0400000000001 -0.6749999999999999Q315.78000000000003 0.0 314.11500000000007 0.0ZM310.7250000000001 -0.69H314.05500000000006Q315.5400000000001 -0.69 316.6350000000001 -1.275Q317.7300000000001 -1.8599999999999999 318.33000000000004 -2.8875Q318.93000000000006 -3.915 318.93000000000006 -5.25Q318.93000000000006 -6.585 318.33000000000004 -7.612500000000001Q317.7300000000001 -8.64 316.6350000000001 -9.225000000000001Q315.5400000000001 -9.81 314.05500000000006 -9.81H310.7250000000001Z M330.81 0.075Q329.64000000000004 0.075 328.5975 -0.3225Q327.555 -0.72 326.985 -1.3499999999999999L327.33000000000004 -1.92Q327.87 -1.365 328.8075 -0.9824999999999999Q329.745 -0.6 330.795 -0.6Q331.845 -0.6 332.51250000000005 -0.8775Q333.18 -1.155 333.50250000000005 -1.62Q333.82500000000005 -2.085 333.82500000000005 -2.655Q333.82500000000005 -3.33 333.46500000000003 -3.735Q333.105 -4.14 332.52 -4.38Q331.935 -4.62 331.245 -4.785Q330.555 -4.95 329.85 -5.1375Q329.14500000000004 -5.325 328.56000000000006 -5.625Q327.975 -5.925 327.62250000000006 -6.4425Q327.27000000000004 -6.96 327.27000000000004 -7.785Q327.27000000000004 -8.535 327.66 -9.165Q328.05 -9.795 328.875 -10.184999999999999Q329.70000000000005 -10.575 330.99 -10.575Q331.86 -10.575 332.7075 -10.32Q333.555 -10.065 334.15500000000003 -9.629999999999999L333.87 -9.014999999999999Q333.21000000000004 -9.465 332.45250000000004 -9.682500000000001Q331.69500000000005 -9.9 330.99 -9.9Q329.985 -9.9 329.32500000000005 -9.615Q328.665 -9.33 328.35 -8.8575Q328.035 -8.385 328.035 -7.8Q328.035 -7.125 328.38750000000005 -6.72Q328.74 -6.3149999999999995 329.32500000000005 -6.074999999999999Q329.91 -5.835 330.615 -5.67Q331.32000000000005 -5.505 332.01000000000005 -5.3175Q332.70000000000005 -5.13 333.285 -4.83Q333.87 -4.53 334.23 -4.02Q334.59000000000003 -3.51 334.59000000000003 -2.6999999999999997Q334.59000000000003 -1.9649999999999999 334.18500000000006 -1.3275Q333.78000000000003 -0.69 332.9475 -0.3075Q332.115 0.075 330.81 0.075Z M352.41 -3.375Q352.15500000000003 -3.375 351.96750000000003 -3.5625Q351.78000000000003 -3.75 351.78000000000003 -4.02Q351.78000000000003 -4.305 351.96750000000003 -4.484999999999999Q352.15500000000003 -4.665 352.41 -4.665Q352.68 -4.665 352.86 -4.484999999999999Q353.04 -4.305 353.04 -4.02Q353.04 -3.75 352.86 -3.5625Q352.68 -3.375 352.41 -3.375Z M371.95500000000004 -2.655 371.925 -3.6149999999999998 378.615 -10.5H379.545L374.865 -5.654999999999999L374.43 -5.1899999999999995ZM371.295 0.0V-10.5H372.06000000000006V0.0ZM378.93 0.0 374.20500000000004 -5.3999999999999995 374.73 -5.955 379.86 0.0Z M387.54 0.0V-10.5H394.56000000000006V-9.81H388.30500000000006V-0.69H394.785V0.0ZM388.21500000000003 -4.995V-5.67H393.90000000000003V-4.995Z M403.27500000000003 0.0V-10.5H403.9200000000001L411.40500000000003 -0.945H411.06000000000006V-10.5H411.82500000000005V0.0H411.19500000000005L403.69500000000005 -9.555H404.0400000000001V0.0Z M423.6600000000001 0.0V-3.81L423.8400000000001 -3.315L419.43000000000006 -10.5H420.2700000000001L424.2750000000001 -3.9749999999999996H423.8550000000001L427.86000000000007 -10.5H428.6550000000001L424.24500000000006 -3.315L424.42500000000007 -3.81V0.0Z M434.50500000000005 0.0 439.33500000000004 -10.5H440.1000000000001L444.93000000000006 0.0H444.1050000000001L439.5450000000001 -10.02H439.87500000000006L435.33000000000004 0.0ZM436.2750000000001 -2.955 436.5300000000001 -3.5999999999999996H442.81500000000005L443.07000000000005 -2.955Z" fill="#8E8A80"/></svg>