<svg xmlns="http://www.w3.org/2000/svg" viewBox="-2 -2 104 104" width="104" height="104"><defs><linearGradient id="gg" x1="0" y1="0" x2="0" y2="1"><stop offset="0" stop-color="#F1D689"/><stop offset=".5" stop-color="#C9A227"/><stop offset="1" stop-color="#7B6019"/></linearGradient></defs><path fill-rule="evenodd" d="M50.00,4.00 L69.74,22.83 L93.75,35.79 L81.94,60.38 L77.04,87.21 L50.00,83.58 L22.96,87.21 L18.06,60.38 L6.25,35.79 L30.26,22.83 Z M36.20,49.66 L40.34,32.18 L47.24,44.60 Z M63.80,49.66 L59.66,32.18 L52.76,44.60 Z M38.04,51.50 L47.24,46.44 L52.76,46.44 L61.96,51.50 L55.98,62.54 L50.00,70.82 L44.02,62.54 Z M50.00,60.70 L52.76,64.84 L50.00,68.98 L47.24,64.84 Z" fill="#C9A227"/></svg>